<?xml version="1.0" encoding="utf-8" standalone="no"?>
<!DOCTYPE svg PUBLIC "-//W3C//DTD SVG 1.1//EN"
  "http://www.w3.org/Graphics/SVG/1.1/DTD/svg11.dtd">
<!-- Created with matplotlib (http://matplotlib.org/) -->
<svg height="216pt" version="1.1" viewBox="0 0 144 216" width="144pt" xmlns="http://www.w3.org/2000/svg" xmlns:xlink="http://www.w3.org/1999/xlink">
 <defs>
  <style type="text/css">
*{stroke-linecap:butt;stroke-linejoin:round;}
  </style>
 </defs>
 <g id="figure_1">
  <g id="patch_1">
   <path d="
M0 216
L144 216
L144 0
L0 0
z
" style="fill:none;"/>
  </g>
  <g id="axes_1">
   <g id="PolyCollection_1">
    <defs>
     <path d="
M36.6 -122.242
L36.6 -128.9
L37.7273 -129.816
L38.8545 -130.694
L39.9818 -131.48
L41.1091 -132.161
L42.2364 -132.75
L43.3636 -133.263
L44.4909 -133.714
L45.6182 -134.113
L46.7455 -134.468
L47.8727 -134.786
L49 -135.073
L50.1273 -135.331
L51.2545 -135.566
L52.3818 -135.78
L53.5091 -135.974
L54.6364 -136.152
L55.7636 -136.315
L56.8909 -136.465
L58.0182 -136.603
L59.1455 -136.73
L60.2727 -136.847
L61.4 -136.955
L62.5273 -137.055
L63.6545 -137.147
L64.7818 -137.233
L65.9091 -137.312
L67.0364 -137.386
L68.1636 -137.455
L69.2909 -137.518
L70.4182 -137.577
L71.5455 -137.632
L72.6727 -137.684
L73.8 -137.731
L74.9273 -137.776
L76.0545 -137.817
L77.1818 -137.856
L78.3091 -137.892
L79.4364 -137.926
L80.5636 -137.957
L81.6909 -137.986
L82.8182 -138.014
L83.9455 -138.039
L85.0727 -138.063
L86.2 -138.085
L87.3273 -138.106
L88.4545 -138.126
L89.5818 -138.144
L90.7091 -138.161
L91.8364 -138.177
L92.9636 -138.192
L94.0909 -138.206
L95.2182 -138.219
L96.3455 -138.232
L97.4727 -138.243
L98.6 -138.254
L99.7273 -138.264
L100.855 -138.274
L101.982 -138.282
L103.109 -138.291
L104.236 -138.299
L105.364 -138.306
L106.491 -138.313
L107.618 -138.319
L108.745 -138.325
L109.873 -138.331
L111 -138.336
L112.127 -138.341
L113.255 -138.346
L114.382 -138.35
L115.509 -138.354
L116.636 -138.358
L117.764 -138.361
L118.891 -138.365
L120.018 -138.368
L121.145 -138.371
L122.273 -138.374
L123.4 -138.376
L124.527 -138.379
L125.655 -138.381
L126.782 -138.383
L127.909 -138.385
L129.036 -138.387
L130.164 -138.389
L131.291 -138.391
L132.418 -138.393
L133.545 -138.394
L134.673 -138.396
L135.8 -138.397
L136.927 -138.399
L138.055 -138.4
L139.182 -138.402
L140.309 -138.403
L141.436 -138.404
L142.564 -138.405
L143.691 -138.406
L144.818 -138.408
L145.945 -138.409
L147.073 -138.41
L148.2 -138.411
L148.2 -131.753
L148.2 -131.753
L147.073 -131.752
L145.945 -131.751
L144.818 -131.75
L143.691 -131.749
L142.564 -131.747
L141.436 -131.746
L140.309 -131.745
L139.182 -131.744
L138.055 -131.742
L136.927 -131.741
L135.8 -131.739
L134.673 -131.738
L133.545 -131.736
L132.418 -131.735
L131.291 -131.733
L130.164 -131.731
L129.036 -131.729
L127.909 -131.727
L126.782 -131.725
L125.655 -131.723
L124.527 -131.721
L123.4 -131.718
L122.273 -131.716
L121.145 -131.713
L120.018 -131.71
L118.891 -131.707
L117.764 -131.703
L116.636 -131.7
L115.509 -131.696
L114.382 -131.692
L113.255 -131.688
L112.127 -131.683
L111 -131.678
L109.873 -131.673
L108.745 -131.667
L107.618 -131.661
L106.491 -131.655
L105.364 -131.648
L104.236 -131.641
L103.109 -131.633
L101.982 -131.625
L100.855 -131.616
L99.7273 -131.606
L98.6 -131.596
L97.4727 -131.585
L96.3455 -131.574
L95.2182 -131.561
L94.0909 -131.548
L92.9636 -131.534
L91.8364 -131.519
L90.7091 -131.503
L89.5818 -131.486
L88.4545 -131.468
L87.3273 -131.448
L86.2 -131.427
L85.0727 -131.405
L83.9455 -131.381
L82.8182 -131.356
L81.6909 -131.328
L80.5636 -131.299
L79.4364 -131.268
L78.3091 -131.234
L77.1818 -131.198
L76.0545 -131.159
L74.9273 -131.118
L73.8 -131.073
L72.6727 -131.026
L71.5455 -130.974
L70.4182 -130.919
L69.2909 -130.86
L68.1636 -130.797
L67.0364 -130.728
L65.9091 -130.654
L64.7818 -130.575
L63.6545 -130.489
L62.5273 -130.397
L61.4 -130.297
L60.2727 -130.189
L59.1455 -130.072
L58.0182 -129.945
L56.8909 -129.807
L55.7636 -129.657
L54.6364 -129.494
L53.5091 -129.316
L52.3818 -129.122
L51.2545 -128.908
L50.1273 -128.673
L49 -128.415
L47.8727 -128.128
L46.7455 -127.81
L45.6182 -127.455
L44.4909 -127.056
L43.3636 -126.605
L42.2364 -126.092
L41.1091 -125.503
L39.9818 -124.822
L38.8545 -124.036
L37.7273 -123.158
L36.6 -122.242
z
" id="mbf4d397697" style="stroke:#000000;stroke-opacity:0.0;"/>
    </defs>
    <g clip-path="url(#p89b1df66ed)">
     <use style="fill:#c2ebff;stroke:#000000;stroke-opacity:0.0;" x="0.0" xlink:href="#mbf4d397697" y="216.0"/>
    </g>
   </g>
   <g id="line2d_1">
    <path clip-path="url(#p89b1df66ed)" d="
M36.6 53.7969
L37.7273 52.8806
L38.8545 52.0023
L39.9818 51.2168
L41.1091 50.5357
L42.2364 49.9466
L43.3636 49.4336
L44.4909 48.9829
L45.6182 48.584
L46.7455 48.2286
L47.8727 47.9104
L49 47.6239
L50.1273 47.3651
L51.2545 47.1304
L52.3818 46.917
L53.5091 46.7223
L54.6364 46.5443
L55.7636 46.3811
L56.8909 46.2314
L58.0182 46.0936
L59.1455 45.9668
L60.2727 45.8498
L61.4 45.7417
L62.5273 45.6418
L63.6545 45.5493
L64.7818 45.4637
L65.9091 45.3842
L67.0364 45.3105
L68.1636 45.2421
L69.2909 45.1784
L70.4182 45.1193
L71.5455 45.0643
L72.6727 45.013
L73.8 44.9653
L74.9273 44.9208
L76.0545 44.8794
L77.1818 44.8407
L78.3091 44.8047
L79.4364 44.771
L80.5636 44.7396
L81.6909 44.7103
L82.8182 44.6829
L83.9455 44.6574
L85.0727 44.6335
L86.2 44.6111
L87.3273 44.5902
L88.4545 44.5707
L89.5818 44.5524
L90.7091 44.5354
L91.8364 44.5194
L92.9636 44.5044
L94.0909 44.4904
L95.2182 44.4772
L96.3455 44.4649
L97.4727 44.4533
L98.6 44.4425
L99.7273 44.4324
L100.855 44.4229
L101.982 44.4141
L103.109 44.4058
L104.236 44.398
L105.364 44.3907
L106.491 44.3838
L107.618 44.3774
L108.745 44.3714
L109.873 44.3658
L111 44.3606
L112.127 44.3556
L113.255 44.351
L114.382 44.3467
L115.509 44.3426
L116.636 44.3388
L117.764 44.3352
L118.891 44.3318
L120.018 44.3286
L121.145 44.3256
L122.273 44.3228
L123.4 44.3201
L124.527 44.3176
L125.655 44.3153
L126.782 44.3132
L127.909 44.3111
L129.036 44.3092
L130.164 44.3073
L131.291 44.3056
L132.418 44.3039
L133.545 44.3023
L134.673 44.3007
L135.8 44.2992
L136.927 44.2978
L138.055 44.2964
L139.182 44.295
L140.309 44.2937
L141.436 44.2925
L142.564 44.2913
L143.691 44.2901
L144.818 44.2889
L145 44.2887" style="fill:none;stroke:#0000ff;stroke-linecap:square;"/>
   </g>
   <g id="line2d_2">
    <path clip-path="url(#p89b1df66ed)" d="
M36.6 87.1003
L37.7273 86.184
L38.8545 85.3057
L39.9818 84.5203
L41.1091 83.8391
L42.2364 83.2501
L43.3636 82.737
L44.4909 82.2863
L45.6182 81.8874
L46.7455 81.5321
L47.8727 81.2138
L49 80.9274
L50.1273 80.6686
L51.2545 80.4339
L52.3818 80.2204
L53.5091 80.0257
L54.6364 79.8477
L55.7636 79.6846
L56.8909 79.5348
L58.0182 79.3971
L59.1455 79.2702
L60.2727 79.1532
L61.4 79.0452
L62.5273 78.9452
L63.6545 78.8528
L64.7818 78.7671
L65.9091 78.6877
L67.0364 78.6139
L68.1636 78.5455
L69.2909 78.4819
L70.4182 78.4227
L71.5455 78.3677
L72.6727 78.3165
L73.8 78.2687
L74.9273 78.2243
L76.0545 78.1828
L77.1818 78.1441
L78.3091 78.1081
L79.4364 78.0745
L80.5636 78.0431
L81.6909 78.0137
L82.8182 77.9864
L83.9455 77.9608
L85.0727 77.9369
L86.2 77.9146
L87.3273 77.8937
L88.4545 77.8741
L89.5818 77.8559
L90.7091 77.8388
L91.8364 77.8228
L92.9636 77.8078
L94.0909 77.7938
L95.2182 77.7806
L96.3455 77.7683
L97.4727 77.7567
L98.6 77.7459
L99.7273 77.7358
L100.855 77.7264
L101.982 77.7175
L103.109 77.7092
L104.236 77.7014
L105.364 77.6941
L106.491 77.6873
L107.618 77.6808
L108.745 77.6748
L109.873 77.6693
L111 77.664
L112.127 77.6591
L113.255 77.6544
L114.382 77.6501
L115.509 77.646
L116.636 77.6422
L117.764 77.6386
L118.891 77.6352
L120.018 77.6321
L121.145 77.629
L122.273 77.6262
L123.4 77.6236
L124.527 77.6211
L125.655 77.6187
L126.782 77.6166
L127.909 77.6146
L129.036 77.6126
L130.164 77.6108
L131.291 77.609
L132.418 77.6073
L133.545 77.6057
L134.673 77.6042
L135.8 77.6026
L136.927 77.6012
L138.055 77.5998
L139.182 77.5985
L140.309 77.5972
L141.436 77.5959
L142.564 77.5947
L143.691 77.5935
L144.818 77.5923
L145 77.5921" style="fill:none;stroke:#0000ff;stroke-linecap:square;"/>
   </g>
   <g id="line2d_3">
    <path clip-path="url(#p89b1df66ed)" d="
M18 50.1341
L129.6 50.1341" style="fill:none;stroke:#ff0000;stroke-dasharray:6.000000,6.000000;stroke-dashoffset:0.0;"/>
   </g>
   <g id="line2d_4">
    <path clip-path="url(#p89b1df66ed)" d="
M36.6 94.4935
L36.6 43.7007" style="fill:none;stroke:#000000;stroke-linecap:square;"/>
   </g>
   <g id="line2d_5">
    <path clip-path="url(#p89b1df66ed)" d="
M36.6 31.1114
L36.6 21.6" style="fill:none;stroke:#000000;stroke-linecap:square;"/>
   </g>
  </g>
  <g id="axes_2">
   <g id="PolyCollection_2">
    <defs>
     <path d="
M36.6 -48.5404
L36.6 -55.1983
L37.7273 -54.5363
L38.8545 -53.8877
L39.9818 -53.2527
L41.1091 -52.6312
L42.2364 -52.0231
L43.3636 -51.4286
L44.4909 -50.8475
L45.6182 -50.2799
L46.7455 -49.7257
L47.8727 -49.185
L49 -48.6578
L50.1273 -48.144
L51.2545 -47.6435
L52.3818 -47.1565
L53.5091 -46.6828
L54.6364 -46.2224
L55.7636 -45.7753
L56.8909 -45.3415
L58.0182 -44.9208
L59.1455 -44.5132
L60.2727 -44.1187
L61.4 -43.7372
L62.5273 -43.3685
L63.6545 -43.0126
L64.7818 -42.6694
L65.9091 -42.3387
L67.0364 -42.0204
L68.1636 -41.7144
L69.2909 -41.4204
L70.4182 -41.1383
L71.5455 -40.868
L72.6727 -40.6091
L73.8 -40.3615
L74.9273 -40.1249
L76.0545 -39.8991
L77.1818 -39.6838
L78.3091 -39.4787
L79.4364 -39.2837
L80.5636 -39.0983
L81.6909 -38.9222
L82.8182 -38.7552
L83.9455 -38.597
L85.0727 -38.4472
L86.2 -38.3055
L87.3273 -38.1716
L88.4545 -38.0452
L89.5818 -37.9259
L90.7091 -37.8135
L91.8364 -37.7075
L92.9636 -37.6078
L94.0909 -37.5141
L95.2182 -37.426
L96.3455 -37.3433
L97.4727 -37.2656
L98.6 -37.1928
L99.7273 -37.1245
L100.855 -37.0606
L101.982 -37.0007
L103.109 -36.9446
L104.236 -36.8921
L105.364 -36.843
L106.491 -36.7971
L107.618 -36.7541
L108.745 -36.714
L109.873 -36.6765
L111 -36.6415
L112.127 -36.6088
L113.255 -36.5783
L114.382 -36.5497
L115.509 -36.523
L116.636 -36.498
L117.764 -36.4748
L118.891 -36.453
L120.018 -36.4327
L121.145 -36.4137
L122.273 -36.396
L123.4 -36.3794
L124.527 -36.3639
L125.655 -36.3494
L126.782 -36.3357
L127.909 -36.3229
L129.036 -36.3109
L130.164 -36.2996
L131.291 -36.289
L132.418 -36.2789
L133.545 -36.2695
L134.673 -36.2605
L135.8 -36.2519
L136.927 -36.2438
L138.055 -36.236
L139.182 -36.2286
L140.309 -36.2214
L141.436 -36.2144
L142.564 -36.2077
L143.691 -36.2011
L144.818 -36.1947
L145.945 -36.1883
L147.073 -36.1819
L148.2 -36.1756
L148.2 -29.5176
L148.2 -29.5176
L147.073 -29.524
L145.945 -29.5303
L144.818 -29.5367
L143.691 -29.5432
L142.564 -29.5498
L141.436 -29.5565
L140.309 -29.5634
L139.182 -29.5706
L138.055 -29.5781
L136.927 -29.5859
L135.8 -29.594
L134.673 -29.6025
L133.545 -29.6115
L132.418 -29.621
L131.291 -29.631
L130.164 -29.6416
L129.036 -29.6529
L127.909 -29.665
L126.782 -29.6778
L125.655 -29.6914
L124.527 -29.706
L123.4 -29.7215
L122.273 -29.738
L121.145 -29.7558
L120.018 -29.7747
L118.891 -29.7951
L117.764 -29.8168
L116.636 -29.8401
L115.509 -29.865
L114.382 -29.8917
L113.255 -29.9203
L112.127 -29.9509
L111 -29.9836
L109.873 -30.0186
L108.745 -30.056
L107.618 -30.0962
L106.491 -30.1391
L105.364 -30.185
L104.236 -30.2341
L103.109 -30.2866
L101.982 -30.3427
L100.855 -30.4026
L99.7273 -30.4666
L98.6 -30.5349
L97.4727 -30.6077
L96.3455 -30.6853
L95.2182 -30.768
L94.0909 -30.8561
L92.9636 -30.9499
L91.8364 -31.0496
L90.7091 -31.1555
L89.5818 -31.2679
L88.4545 -31.3872
L87.3273 -31.5136
L86.2 -31.6475
L85.0727 -31.7892
L83.9455 -31.939
L82.8182 -32.0973
L81.6909 -32.2643
L80.5636 -32.4403
L79.4364 -32.6257
L78.3091 -32.8208
L77.1818 -33.0258
L76.0545 -33.2411
L74.9273 -33.4669
L73.8 -33.7035
L72.6727 -33.9511
L71.5455 -34.21
L70.4182 -34.4804
L69.2909 -34.7624
L68.1636 -35.0564
L67.0364 -35.3625
L65.9091 -35.6807
L64.7818 -36.0114
L63.6545 -36.3547
L62.5273 -36.7105
L61.4 -37.0792
L60.2727 -37.4607
L59.1455 -37.8553
L58.0182 -38.2628
L56.8909 -38.6835
L55.7636 -39.1174
L54.6364 -39.5645
L53.5091 -40.0248
L52.3818 -40.4985
L51.2545 -40.9856
L50.1273 -41.486
L49 -41.9998
L47.8727 -42.5271
L46.7455 -43.0678
L45.6182 -43.6219
L44.4909 -44.1895
L43.3636 -44.7706
L42.2364 -45.3652
L41.1091 -45.9732
L39.9818 -46.5948
L38.8545 -47.2298
L37.7273 -47.8783
L36.6 -48.5404
z
" id="m8d358ceee6" style="stroke:#000000;stroke-opacity:0.0;"/>
    </defs>
    <g clip-path="url(#p610f3e2a1a)">
     <use style="fill:#c2ebff;stroke:#000000;stroke-opacity:0.0;" x="0.0" xlink:href="#m8d358ceee6" y="216.0"/>
    </g>
   </g>
   <g id="line2d_6">
    <path clip-path="url(#p610f3e2a1a)" d="
M36.6 113.245
L37.7273 113.907
L38.8545 114.555
L39.9818 115.19
L41.1091 115.812
L42.2364 116.42
L43.3636 117.015
L44.4909 117.596
L45.6182 118.163
L46.7455 118.717
L47.8727 119.258
L49 119.785
L50.1273 120.299
L51.2545 120.8
L52.3818 121.287
L53.5091 121.76
L54.6364 122.221
L55.7636 122.668
L56.8909 123.102
L58.0182 123.522
L59.1455 123.93
L60.2727 124.324
L61.4 124.706
L62.5273 125.075
L63.6545 125.431
L64.7818 125.774
L65.9091 126.104
L67.0364 126.423
L68.1636 126.729
L69.2909 127.023
L70.4182 127.305
L71.5455 127.575
L72.6727 127.834
L73.8 128.082
L74.9273 128.318
L76.0545 128.544
L77.1818 128.759
L78.3091 128.964
L79.4364 129.16
L80.5636 129.345
L81.6909 129.521
L82.8182 129.688
L83.9455 129.846
L85.0727 129.996
L86.2 130.138
L87.3273 130.272
L88.4545 130.398
L89.5818 130.517
L90.7091 130.63
L91.8364 130.736
L92.9636 130.835
L94.0909 130.929
L95.2182 131.017
L96.3455 131.1
L97.4727 131.178
L98.6 131.25
L99.7273 131.319
L100.855 131.383
L101.982 131.443
L103.109 131.499
L104.236 131.551
L105.364 131.6
L106.491 131.646
L107.618 131.689
L108.745 131.729
L109.873 131.767
L111 131.802
L112.127 131.834
L113.255 131.865
L114.382 131.893
L115.509 131.92
L116.636 131.945
L117.764 131.968
L118.891 131.99
L120.018 132.01
L121.145 132.029
L122.273 132.047
L123.4 132.064
L124.527 132.079
L125.655 132.094
L126.782 132.107
L127.909 132.12
L129.036 132.132
L130.164 132.144
L131.291 132.154
L132.418 132.164
L133.545 132.174
L134.673 132.183
L135.8 132.191
L136.927 132.199
L138.055 132.207
L139.182 132.215
L140.309 132.222
L141.436 132.229
L142.564 132.235
L143.691 132.242
L144.818 132.249
L145 132.25" style="fill:none;stroke:#0000ff;stroke-linecap:square;"/>
   </g>
   <g id="line2d_7">
    <path clip-path="url(#p610f3e2a1a)" d="
M36.6 160.802
L37.7273 161.464
L38.8545 162.112
L39.9818 162.747
L41.1091 163.369
L42.2364 163.977
L43.3636 164.571
L44.4909 165.153
L45.6182 165.72
L46.7455 166.274
L47.8727 166.815
L49 167.342
L50.1273 167.856
L51.2545 168.356
L52.3818 168.844
L53.5091 169.317
L54.6364 169.778
L55.7636 170.225
L56.8909 170.659
L58.0182 171.079
L59.1455 171.487
L60.2727 171.881
L61.4 172.263
L62.5273 172.632
L63.6545 172.987
L64.7818 173.331
L65.9091 173.661
L67.0364 173.98
L68.1636 174.286
L69.2909 174.58
L70.4182 174.862
L71.5455 175.132
L72.6727 175.391
L73.8 175.639
L74.9273 175.875
L76.0545 176.101
L77.1818 176.316
L78.3091 176.521
L79.4364 176.716
L80.5636 176.902
L81.6909 177.078
L82.8182 177.245
L83.9455 177.403
L85.0727 177.553
L86.2 177.695
L87.3273 177.828
L88.4545 177.955
L89.5818 178.074
L90.7091 178.187
L91.8364 178.292
L92.9636 178.392
L94.0909 178.486
L95.2182 178.574
L96.3455 178.657
L97.4727 178.734
L98.6 178.807
L99.7273 178.875
L100.855 178.939
L101.982 178.999
L103.109 179.055
L104.236 179.108
L105.364 179.157
L106.491 179.203
L107.618 179.246
L108.745 179.286
L109.873 179.323
L111 179.358
L112.127 179.391
L113.255 179.422
L114.382 179.45
L115.509 179.477
L116.636 179.502
L117.764 179.525
L118.891 179.547
L120.018 179.567
L121.145 179.586
L122.273 179.604
L123.4 179.621
L124.527 179.636
L125.655 179.651
L126.782 179.664
L127.909 179.677
L129.036 179.689
L130.164 179.7
L131.291 179.711
L132.418 179.721
L133.545 179.731
L134.673 179.74
L135.8 179.748
L136.927 179.756
L138.055 179.764
L139.182 179.771
L140.309 179.779
L141.436 179.786
L142.564 179.792
L143.691 179.799
L144.818 179.805
L145 179.806" style="fill:none;stroke:#0000ff;stroke-linecap:square;"/>
   </g>
   <g id="line2d_8">
    <path clip-path="url(#p610f3e2a1a)" d="
M18 141.443
L129.6 141.443" style="fill:none;stroke:#ff0000;stroke-dasharray:6.000000,6.000000;stroke-dashoffset:0.0;"/>
   </g>
   <g id="line2d_9">
    <path clip-path="url(#p610f3e2a1a)" d="
M36.6 167.984
L36.6 155.71" style="fill:none;stroke:#000000;stroke-linecap:square;"/>
   </g>
   <g id="line2d_10">
    <path clip-path="url(#p610f3e2a1a)" d="
M36.6 146.199
L36.6 110.425" style="fill:none;stroke:#000000;stroke-linecap:square;"/>
   </g>
   <g id="line2d_11">
    <path clip-path="url(#p610f3e2a1a)" d="
M35.484 156.661
L37.716 154.759" style="fill:none;stroke:#000000;stroke-linecap:square;"/>
   </g>
   <g id="line2d_12">
    <path clip-path="url(#p610f3e2a1a)" d="
M35.484 147.15
L37.716 145.248" style="fill:none;stroke:#000000;stroke-linecap:square;"/>
   </g>
   <g id="text_1">
    <text style="font-family:Bitstream Vera Sans;font-size:10.0px;font-style:normal;text-anchor:middle;" transform="rotate(-0.000000, 92.400000, 158.469602)" x="92.4" y="158.469602273">GaAs</text>
   </g>
   <g id="text_2">
    <text style="font-family:Bitstream Vera Sans;font-size:10.0px;font-style:normal;text-anchor:middle;" transform="rotate(-0.000000, 92.400000, 65.733807)" x="92.4" y="65.7338068182">InAs</text>
   </g>
   <g id="text_3">
    <text style="font-family:Bitstream Vera Sans;font-size:10.0px;font-style:normal;text-anchor:middle;" transform="rotate(-0.000000, 140.760000, 145.965767)" x="140.76" y="145.965767045">$E_F$</text>
   </g>
   <g id="text_4">
    <text style="font-family:Bitstream Vera Sans;font-size:10.0px;font-style:normal;text-anchor:middle;" transform="rotate(-0.000000, 140.760000, 134.552131)" x="140.76" y="134.552130682">$E_C$</text>
   </g>
   <g id="text_5">
    <text style="font-family:Bitstream Vera Sans;font-size:10.0px;font-style:normal;text-anchor:middle;" transform="rotate(-0.000000, 140.760000, 182.108949)" x="140.76" y="182.108948864">$E_V$</text>
   </g>
   <g id="text_6">
    <text style="font-family:Bitstream Vera Sans;font-size:10.0px;font-style:normal;text-anchor:middle;" transform="rotate(-0.000000, 18.000000, 137.405540)" x="18.0" y="137.405539773">$E_{redox}$</text>
   </g>
   <g id="text_7">
    <text style="font-family:Bitstream Vera Sans;font-size:10.0px;font-style:normal;text-anchor:middle;" transform="rotate(-0.000000, 140.760000, 56.558949)" x="140.76" y="56.5589488636">$E_F$</text>
   </g>
   <g id="text_8">
    <text style="font-family:Bitstream Vera Sans;font-size:10.0px;font-style:normal;text-anchor:middle;" transform="rotate(-0.000000, 140.760000, 45.145312)" x="140.76" y="45.1453125">$E_C$</text>
   </g>
   <g id="text_9">
    <text style="font-family:Bitstream Vera Sans;font-size:10.0px;font-style:normal;text-anchor:middle;" transform="rotate(-0.000000, 140.760000, 81.288494)" x="140.76" y="81.2884943182">$E_V$</text>
   </g>
   <g id="text_10">
    <text style="font-family:Bitstream Vera Sans;font-size:10.0px;font-style:normal;text-anchor:middle;" transform="rotate(-0.000000, 18.000000, 46.096449)" x="18.0" y="46.0964488636">$E_{redox}$</text>
   </g>
   <g id="text_11">
    <text style="font-family:Bitstream Vera Sans;font-size:10.0px;font-style:normal;text-anchor:middle;" transform="rotate(-0.000000, 4.980000, 29.115057)" x="4.98" y="29.1150568182">Electrolyte</text>
   </g>
   <g id="text_12">
    <text style="font-family:Bitstream Vera Sans;font-size:10.0px;font-style:normal;text-anchor:middle;" transform="rotate(-0.000000, 77.520000, 29.115057)" x="77.52" y="29.1150568182">Semiconductor</text>
   </g>
  </g>
 </g>
 <defs>
  <clipPath id="p610f3e2a1a">
   <rect height="76.0909090909" width="111.6" x="18.0" y="112.909090909"/>
  </clipPath>
  <clipPath id="p89b1df66ed">
   <rect height="76.0909090909" width="111.6" x="18.0" y="21.6"/>
  </clipPath>
 </defs>
</svg>
