<?xml version="1.0" encoding="utf-8" standalone="no"?>
<!DOCTYPE svg PUBLIC "-//W3C//DTD SVG 1.1//EN"
  "http://www.w3.org/Graphics/SVG/1.1/DTD/svg11.dtd">
<!-- Created with matplotlib (http://matplotlib.org/) -->
<svg height="194pt" version="1.1" viewBox="0 0 504 194" width="504pt" xmlns="http://www.w3.org/2000/svg" xmlns:xlink="http://www.w3.org/1999/xlink">
 <defs>
  <style type="text/css">
*{stroke-linecap:butt;stroke-linejoin:round;}
  </style>
 </defs>
 <g id="figure_1">
  <g id="patch_1">
   <path d="
M0 194.4
L504 194.4
L504 0
L0 0
z
" style="fill:none;"/>
  </g>
  <g id="axes_1">
   <g id="PolyCollection_1">
    <defs>
     <path d="
M39.76 -23.6044
L39.76 -37.9684
L40.5813 -39.0579
L41.4027 -40.1424
L42.224 -41.1975
L43.0453 -42.2014
L43.8667 -43.1412
L44.688 -44.0126
L45.5093 -44.8178
L46.3307 -45.5615
L47.152 -46.2496
L50.1088 -48.3147
L53.6342 -50.2
L57.1596 -51.6603
L60.685 -52.8171
L64.2105 -53.7486
L67.7359 -54.5081
L71.2613 -55.1333
L74.7867 -55.6517
L78.3121 -56.0841
L81.8375 -56.4465
L85.363 -56.7515
L88.8884 -57.0089
L92.4138 -57.2267
L95.9392 -57.4114
L99.4646 -57.5683
L102.99 -57.7019
L106.515 -57.8157
L110.041 -57.9128
L113.566 -57.9958
L117.092 -58.0667
L120.617 -58.1274
L124.143 -58.1794
L127.668 -58.2244
L131.193 -58.2631
L134.719 -58.2964
L138.244 -58.3246
L141.77 -58.3488
L145.295 -58.3698
L148.82 -58.3879
L152.346 -58.4036
L155.871 -58.4171
L159.397 -58.4289
L162.922 -58.4391
L166.448 -58.448
L169.973 -58.4562
L173.498 -58.4635
L177.024 -58.4704
L180.549 -58.4768
L184.075 -58.4829
L187.6 -58.4884
L187.6 -44.1244
L187.6 -44.1244
L184.075 -44.1189
L180.549 -44.1128
L177.024 -44.1064
L173.498 -44.0995
L169.973 -44.0922
L166.448 -44.084
L162.922 -44.0751
L159.397 -44.0649
L155.871 -44.0531
L152.346 -44.0396
L148.82 -44.0239
L145.295 -44.0058
L141.77 -43.9848
L138.244 -43.9606
L134.719 -43.9324
L131.193 -43.8991
L127.668 -43.8604
L124.143 -43.8154
L120.617 -43.7634
L117.092 -43.7027
L113.566 -43.6318
L110.041 -43.5488
L106.515 -43.4517
L102.99 -43.3379
L99.4646 -43.2043
L95.9392 -43.0474
L92.4138 -42.8627
L88.8884 -42.6449
L85.363 -42.3875
L81.8375 -42.0825
L78.3121 -41.7201
L74.7867 -41.2877
L71.2613 -40.7693
L67.7359 -40.1441
L64.2105 -39.3846
L60.685 -38.4531
L57.1596 -37.2963
L53.6342 -35.836
L50.1088 -33.9507
L47.152 -31.8856
L46.3307 -31.1975
L45.5093 -30.4538
L44.688 -29.6486
L43.8667 -28.7772
L43.0453 -27.8374
L42.224 -26.8335
L41.4027 -25.7784
L40.5813 -24.6939
L39.76 -23.6044
z
" id="m485b72e552" style="stroke:#000000;stroke-opacity:0.0;"/>
    </defs>
    <g clip-path="url(#p4d5d90fd3d)">
     <use style="fill:#c2ebff;stroke:#000000;stroke-opacity:0.0;" x="0.0" xlink:href="#m485b72e552" y="194.4"/>
    </g>
   </g>
   <g id="line2d_1">
    <path clip-path="url(#p4d5d90fd3d)" d="
M39.76 84.5822
L40.5813 83.4926
L41.4027 82.4081
L42.224 81.353
L43.0453 80.3491
L43.8667 79.4094
L44.688 78.5379
L45.5093 77.7328
L46.3307 76.9891
L47.152 76.3009
L50.1088 74.2358
L53.6342 72.3505
L57.1596 70.8902
L60.685 69.7335
L64.2105 68.8019
L67.7359 68.0424
L71.2613 67.4172
L74.7867 66.8988
L78.3121 66.4664
L81.8375 66.104
L85.363 65.7991
L88.8884 65.5417
L92.4138 65.3239
L95.9392 65.1391
L99.4646 64.9822
L102.99 64.8486
L106.515 64.7349
L110.041 64.6377
L113.566 64.5548
L117.092 64.4839
L120.617 64.4231
L124.143 64.3711
L127.668 64.3261
L131.193 64.2874
L134.719 64.2541
L138.244 64.226
L141.77 64.2017
L145.295 64.1808
L148.82 64.1627
L152.346 64.1469
L155.871 64.1334
L159.397 64.1216
L162.922 64.1114
L166.448 64.1025
L169.973 64.0943
L173.498 64.087
L177.024 64.0801
L180.549 64.0737
L184.075 64.0677
L187.6 64.0622" style="fill:none;stroke:#0000ff;stroke-linecap:square;"/>
   </g>
   <g id="line2d_2">
    <path clip-path="url(#p4d5d90fd3d)" d="
M39.76 156.432
L40.5813 155.342
L41.4027 154.258
L42.224 153.202
L43.0453 152.199
L43.8667 151.259
L44.688 150.387
L45.5093 149.582
L46.3307 148.839
L47.152 148.15
L50.1088 146.085
L53.6342 144.2
L57.1596 142.74
L60.685 141.583
L64.2105 140.651
L67.7359 139.892
L71.2613 139.267
L74.7867 138.748
L78.3121 138.316
L81.8375 137.953
L85.363 137.649
L88.8884 137.391
L92.4138 137.173
L95.9392 136.989
L99.4646 136.832
L102.99 136.698
L106.515 136.584
L110.041 136.487
L113.566 136.404
L117.092 136.333
L120.617 136.273
L124.143 136.221
L127.668 136.176
L131.193 136.137
L134.719 136.104
L138.244 136.075
L141.77 136.051
L145.295 136.03
L148.82 136.012
L152.346 135.996
L155.871 135.983
L159.397 135.971
L162.922 135.961
L166.448 135.952
L169.973 135.944
L173.498 135.936
L177.024 135.93
L180.549 135.923
L184.075 135.917
L187.6 135.912" style="fill:none;stroke:#0000ff;stroke-linecap:square;"/>
   </g>
   <g id="line2d_3">
    <path clip-path="url(#p4d5d90fd3d)" d="
M39.76 76.68
L40.5813 76.68
L41.4027 76.68
L42.224 76.68
L43.0453 76.68
L43.8667 76.68
L44.688 76.68
L45.5093 76.68
L46.3307 76.68
L47.152 76.68
L50.1088 76.68
L53.6342 76.68
L57.1596 76.68
L60.685 76.68
L64.2105 76.68
L67.7359 76.68
L71.2613 76.68
L74.7867 76.68
L78.3121 76.68
L81.8375 76.68
L85.363 76.68
L88.8884 76.68
L92.4138 76.68
L95.9392 76.68
L99.4646 76.68
L102.99 76.68
L106.515 76.68
L110.041 76.68
L113.566 76.68
L117.092 76.68
L120.617 76.68
L124.143 76.68
L127.668 76.68
L131.193 76.68
L134.719 76.68
L138.244 76.68
L141.77 76.68
L145.295 76.68
L148.82 76.68
L152.346 76.68
L155.871 76.68
L159.397 76.68
L162.922 76.68
L166.448 76.68
L169.973 76.68
L173.498 76.68
L177.024 76.68
L180.549 76.68
L184.075 76.68
L187.6 76.68" style="fill:none;stroke:#ff0000;stroke-dasharray:6.000000,6.000000;stroke-dashoffset:0.0;"/>
   </g>
   <g id="line2d_4">
    <path clip-path="url(#p4d5d90fd3d)" d="
M15.12 76.68
L34.832 76.68" style="fill:none;stroke:#ff0000;stroke-dasharray:6.000000,6.000000;stroke-dashoffset:0.0;"/>
   </g>
   <g id="line2d_5">
    <path clip-path="url(#p4d5d90fd3d)" d="
M39.76 172.382
L39.76 62.8004" style="fill:none;stroke:#000000;stroke-linecap:square;"/>
   </g>
   <g id="line2d_6">
    <path clip-path="url(#p4d5d90fd3d)" d="
M39.76 35.64
L39.76 15.12" style="fill:none;stroke:#000000;stroke-linecap:square;"/>
   </g>
  </g>
  <g id="axes_2">
   <g id="PolyCollection_2">
    <defs>
     <path d="
M202.72 -64.6444
L202.72 -79.0084
L203.541 -78.5234
L204.363 -78.048
L205.184 -77.582
L206.005 -77.1251
L206.827 -76.677
L207.648 -76.2376
L208.469 -75.8066
L209.291 -75.3838
L210.112 -74.9691
L213.069 -73.542
L216.594 -71.9674
L220.12 -70.523
L223.645 -69.2022
L227.17 -67.9985
L230.696 -66.9058
L234.221 -65.9178
L237.747 -65.0283
L241.272 -64.2306
L244.798 -63.5181
L248.323 -62.8842
L251.848 -62.3221
L255.374 -61.8255
L258.899 -61.3882
L262.425 -61.0043
L265.95 -60.668
L269.475 -60.3742
L273.001 -60.1182
L276.526 -59.8954
L280.052 -59.7018
L283.577 -59.5339
L287.103 -59.3884
L290.628 -59.2628
L294.153 -59.1541
L297.679 -59.0603
L301.204 -58.9786
L304.73 -58.9079
L308.255 -58.8468
L311.78 -58.7937
L315.306 -58.7477
L318.831 -58.7074
L322.357 -58.672
L325.882 -58.6407
L329.408 -58.6129
L332.933 -58.5881
L336.458 -58.5655
L339.984 -58.5449
L343.509 -58.5255
L347.035 -58.5069
L350.56 -58.4884
L350.56 -44.1244
L350.56 -44.1244
L347.035 -44.1429
L343.509 -44.1615
L339.984 -44.1809
L336.458 -44.2015
L332.933 -44.2241
L329.408 -44.2489
L325.882 -44.2767
L322.357 -44.308
L318.831 -44.3434
L315.306 -44.3837
L311.78 -44.4297
L308.255 -44.4828
L304.73 -44.5439
L301.204 -44.6146
L297.679 -44.6963
L294.153 -44.7901
L290.628 -44.8988
L287.103 -45.0244
L283.577 -45.1699
L280.052 -45.3378
L276.526 -45.5314
L273.001 -45.7542
L269.475 -46.0102
L265.95 -46.304
L262.425 -46.6403
L258.899 -47.0242
L255.374 -47.4615
L251.848 -47.9581
L248.323 -48.5202
L244.798 -49.1541
L241.272 -49.8666
L237.747 -50.6643
L234.221 -51.5538
L230.696 -52.5418
L227.17 -53.6345
L223.645 -54.8382
L220.12 -56.159
L216.594 -57.6034
L213.069 -59.178
L210.112 -60.6051
L209.291 -61.0198
L208.469 -61.4426
L207.648 -61.8736
L206.827 -62.313
L206.005 -62.7611
L205.184 -63.218
L204.363 -63.684
L203.541 -64.1594
L202.72 -64.6444
z
" id="m8dbfd9a689" style="stroke:#000000;stroke-opacity:0.0;"/>
    </defs>
    <g clip-path="url(#pef07d6a978)">
     <use style="fill:#c2ebff;stroke:#000000;stroke-opacity:0.0;" x="0.0" xlink:href="#m8dbfd9a689" y="194.4"/>
    </g>
   </g>
   <g id="line2d_7">
    <path clip-path="url(#pef07d6a978)" d="
M202.72 43.5422
L203.541 44.0271
L204.363 44.5025
L205.184 44.9685
L206.005 45.4254
L206.827 45.8735
L207.648 46.3129
L208.469 46.744
L209.291 47.1667
L210.112 47.5814
L213.069 49.0086
L216.594 50.5832
L220.12 52.0275
L223.645 53.3484
L227.17 54.5521
L230.696 55.6447
L234.221 56.6327
L237.747 57.5223
L241.272 58.32
L244.798 59.0324
L248.323 59.6663
L251.848 60.2284
L255.374 60.725
L258.899 61.1623
L262.425 61.5463
L265.95 61.8825
L269.475 62.1763
L273.001 62.4324
L276.526 62.6552
L280.052 62.8488
L283.577 63.0166
L287.103 63.1621
L290.628 63.2877
L294.153 63.3964
L297.679 63.4903
L301.204 63.572
L304.73 63.6426
L308.255 63.7038
L311.78 63.7568
L315.306 63.8029
L318.831 63.8432
L322.357 63.8786
L325.882 63.9098
L329.408 63.9377
L332.933 63.9625
L336.458 63.985
L339.984 64.0056
L343.509 64.025
L347.035 64.0436
L350.56 64.0622" style="fill:none;stroke:#0000ff;stroke-linecap:square;"/>
   </g>
   <g id="line2d_8">
    <path clip-path="url(#pef07d6a978)" d="
M202.72 115.392
L203.541 115.877
L204.363 116.352
L205.184 116.818
L206.005 117.275
L206.827 117.723
L207.648 118.162
L208.469 118.593
L209.291 119.016
L210.112 119.431
L213.069 120.858
L216.594 122.433
L220.12 123.877
L223.645 125.198
L227.17 126.402
L230.696 127.494
L234.221 128.482
L237.747 129.372
L241.272 130.169
L244.798 130.882
L248.323 131.516
L251.848 132.078
L255.374 132.574
L258.899 133.012
L262.425 133.396
L265.95 133.732
L269.475 134.026
L273.001 134.282
L276.526 134.505
L280.052 134.698
L283.577 134.866
L287.103 135.012
L290.628 135.137
L294.153 135.246
L297.679 135.34
L301.204 135.421
L304.73 135.492
L308.255 135.553
L311.78 135.606
L315.306 135.652
L318.831 135.693
L322.357 135.728
L325.882 135.759
L329.408 135.787
L332.933 135.812
L336.458 135.835
L339.984 135.855
L343.509 135.874
L347.035 135.893
L350.56 135.912" style="fill:none;stroke:#0000ff;stroke-linecap:square;"/>
   </g>
   <g id="line2d_9">
    <path clip-path="url(#pef07d6a978)" d="
M220.12 76.68
L223.645 76.68
L227.17 76.68
L230.696 76.68
L234.221 76.68
L237.747 76.68
L241.272 76.68
L244.798 76.68
L248.323 76.68
L251.848 76.68
L255.374 76.68
L258.899 76.68
L262.425 76.68
L265.95 76.68
L269.475 76.68
L273.001 76.68
L276.526 76.68
L280.052 76.68
L283.577 76.68
L287.103 76.68
L290.628 76.68
L294.153 76.68
L297.679 76.68
L301.204 76.68
L304.73 76.68
L308.255 76.68
L311.78 76.68
L315.306 76.68
L318.831 76.68
L322.357 76.68
L325.882 76.68
L329.408 76.68
L332.933 76.68
L336.458 76.68
L339.984 76.68
L343.509 76.68
L347.035 76.68
L350.56 76.68" style="fill:none;stroke:#ff0000;stroke-dasharray:6.000000,6.000000;stroke-dashoffset:0.0;"/>
   </g>
   <g id="line2d_10">
    <path clip-path="url(#pef07d6a978)" d="
M178.08 35.64
L232.288 35.64" style="fill:none;stroke:#ff0000;stroke-dasharray:6.000000,6.000000;stroke-dashoffset:0.0;"/>
   </g>
   <g id="line2d_11">
    <path clip-path="url(#pef07d6a978)" d="
M202.72 141.835
L202.72 36.9146" style="fill:none;stroke:#000000;stroke-linecap:square;"/>
   </g>
   <g id="patch_2">
    <path d="
M227.36 38.7594
Q227.36 56.1623 227.36 73.5652" style="fill:none;stroke:#000000;stroke-linecap:round;"/>
    <path d="
M224.56 44.3594
L227.36 38.7594
L230.16 44.3594" style="fill:none;stroke:#000000;stroke-linecap:round;"/>
    <path d="
M230.16 67.9652
L227.36 73.5652
L224.56 67.9652" style="fill:none;stroke:#000000;stroke-linecap:round;"/>
   </g>
  </g>
  <g id="axes_3">
   <g id="PolyCollection_3">
    <defs>
     <path d="
M365.68 -85.1644
L365.68 -99.5284
L366.501 -98.1688
L367.323 -96.9293
L368.144 -95.7865
L368.965 -94.723
L369.787 -93.7258
L370.608 -92.7846
L371.429 -91.8915
L372.251 -91.0401
L373.072 -90.2253
L376.029 -87.5594
L379.554 -84.7574
L383.08 -82.2479
L386.605 -79.9669
L390.13 -77.8773
L393.656 -75.9556
L397.181 -74.1865
L400.707 -72.559
L404.232 -71.0646
L407.758 -69.6963
L411.283 -68.4475
L414.808 -67.312
L418.334 -66.2836
L421.859 -65.3561
L425.385 -64.5229
L428.91 -63.7775
L432.435 -63.1132
L435.961 -62.5234
L439.486 -62.0015
L443.012 -61.5412
L446.537 -61.1364
L450.063 -60.7813
L453.588 -60.4707
L457.113 -60.1993
L460.639 -59.9627
L464.164 -59.756
L467.69 -59.576
L471.215 -59.4193
L474.74 -59.2826
L478.266 -59.1634
L481.791 -59.0589
L485.317 -58.967
L488.842 -58.8857
L492.368 -58.8134
L495.893 -58.7486
L499.418 -58.6897
L502.944 -58.6356
L506.469 -58.5849
L509.995 -58.5362
L513.52 -58.4884
L513.52 -44.1244
L513.52 -44.1244
L509.995 -44.1722
L506.469 -44.2209
L502.944 -44.2716
L499.418 -44.3257
L495.893 -44.3846
L492.368 -44.4494
L488.842 -44.5217
L485.317 -44.603
L481.791 -44.6949
L478.266 -44.7994
L474.74 -44.9186
L471.215 -45.0553
L467.69 -45.212
L464.164 -45.392
L460.639 -45.5987
L457.113 -45.8353
L453.588 -46.1067
L450.063 -46.4173
L446.537 -46.7724
L443.012 -47.1772
L439.486 -47.6375
L435.961 -48.1594
L432.435 -48.7492
L428.91 -49.4135
L425.385 -50.1589
L421.859 -50.9921
L418.334 -51.9196
L414.808 -52.948
L411.283 -54.0835
L407.758 -55.3323
L404.232 -56.7006
L400.707 -58.195
L397.181 -59.8225
L393.656 -61.5916
L390.13 -63.5133
L386.605 -65.6029
L383.08 -67.8839
L379.554 -70.3934
L376.029 -73.1954
L373.072 -75.8613
L372.251 -76.6761
L371.429 -77.5275
L370.608 -78.4206
L369.787 -79.3618
L368.965 -80.359
L368.144 -81.4225
L367.323 -82.5653
L366.501 -83.8048
L365.68 -85.1644
z
" id="mcf4f82f75c" style="stroke:#000000;stroke-opacity:0.0;"/>
    </defs>
    <g clip-path="url(#pcd8690931f)">
     <use style="fill:#c2ebff;stroke:#000000;stroke-opacity:0.0;" x="0.0" xlink:href="#mcf4f82f75c" y="194.4"/>
    </g>
   </g>
   <g id="line2d_12">
    <path clip-path="url(#pcd8690931f)" d="
M365.68 23.0222
L366.501 24.3817
L367.323 25.6212
L368.144 26.764
L368.965 27.8275
L369.787 28.8248
L370.608 29.7659
L371.429 30.659
L372.251 31.5104
L373.072 32.3252
L376.029 34.9911
L379.554 37.7931
L383.08 40.3027
L386.605 42.5836
L390.13 44.6733
L393.656 46.5949
L397.181 48.364
L400.707 49.9915
L404.232 51.4859
L407.758 52.8543
L411.283 54.1031
L414.808 55.2386
L418.334 56.2669
L421.859 57.1945
L425.385 58.0276
L428.91 58.773
L432.435 59.4373
L435.961 60.0271
L439.486 60.549
L443.012 61.0093
L446.537 61.4142
L450.063 61.7693
L453.588 62.0799
L457.113 62.3512
L460.639 62.5879
L464.164 62.7945
L467.69 62.9745
L471.215 63.1313
L474.74 63.2679
L478.266 63.3872
L481.791 63.4917
L485.317 63.5836
L488.842 63.6648
L492.368 63.7371
L495.893 63.8019
L499.418 63.8608
L502.944 63.9149
L505 63.9445" style="fill:none;stroke:#0000ff;stroke-linecap:square;"/>
   </g>
   <g id="line2d_13">
    <path clip-path="url(#pcd8690931f)" d="
M365.68 94.8716
L366.501 96.2312
L367.323 97.4707
L368.144 98.6135
L368.965 99.677
L369.787 100.674
L370.608 101.615
L371.429 102.508
L372.251 103.36
L373.072 104.175
L376.029 106.841
L379.554 109.643
L383.08 112.152
L386.605 114.433
L390.13 116.523
L393.656 118.444
L397.181 120.214
L400.707 121.841
L404.232 123.335
L407.758 124.704
L411.283 125.953
L414.808 127.088
L418.334 128.116
L421.859 129.044
L425.385 129.877
L428.91 130.623
L432.435 131.287
L435.961 131.877
L439.486 132.398
L443.012 132.859
L446.537 133.264
L450.063 133.619
L453.588 133.929
L457.113 134.201
L460.639 134.437
L464.164 134.644
L467.69 134.824
L471.215 134.981
L474.74 135.117
L478.266 135.237
L481.791 135.341
L485.317 135.433
L488.842 135.514
L492.368 135.587
L495.893 135.651
L499.418 135.71
L502.944 135.764
L505 135.794" style="fill:none;stroke:#0000ff;stroke-linecap:square;"/>
   </g>
   <g id="line2d_14">
    <path clip-path="url(#pcd8690931f)" d="
M393.656 76.68
L397.181 76.68
L400.707 76.68
L404.232 76.68
L407.758 76.68
L411.283 76.68
L414.808 76.68
L418.334 76.68
L421.859 76.68
L425.385 76.68
L428.91 76.68
L432.435 76.68
L435.961 76.68
L439.486 76.68
L443.012 76.68
L446.537 76.68
L450.063 76.68
L453.588 76.68
L457.113 76.68
L460.639 76.68
L464.164 76.68
L467.69 76.68
L471.215 76.68
L474.74 76.68
L478.266 76.68
L481.791 76.68
L485.317 76.68
L488.842 76.68
L492.368 76.68
L495.893 76.68
L499.418 76.68
L502.944 76.68
L505 76.68" style="fill:none;stroke:#ff0000;stroke-dasharray:6.000000,6.000000;stroke-dashoffset:0.0;"/>
   </g>
   <g id="line2d_15">
    <path clip-path="url(#pcd8690931f)" d="
M341.04 17.172
L395.248 17.172" style="fill:none;stroke:#ff0000;stroke-dasharray:6.000000,6.000000;stroke-dashoffset:0.0;"/>
   </g>
   <g id="line2d_16">
    <path clip-path="url(#pcd8690931f)" d="
M365.68 141.835
L365.68 17.6564" style="fill:none;stroke:#000000;stroke-linecap:square;"/>
   </g>
   <g id="text_1">
    <text style="font-family:Bitstream Vera Sans;font-size:14.0px;font-style:normal;text-anchor:middle;" transform="rotate(-0.000000, 104.496000, 172.883125)" x="104.496" y="172.883125">accumulation</text>
   </g>
   <g id="text_2">
    <text style="font-family:Bitstream Vera Sans;font-size:14.0px;font-style:normal;text-anchor:middle;" transform="rotate(-0.000000, 267.120000, 172.883125)" x="267.12" y="172.883125">depletion</text>
   </g>
   <g id="text_3">
    <text style="font-family:Bitstream Vera Sans;font-size:14.0px;font-style:normal;text-anchor:middle;" transform="rotate(-0.000000, 434.672000, 172.883125)" x="434.672" y="172.883125">inversion</text>
   </g>
   <g id="text_4">
    <text style="font-family:Bitstream Vera Sans;font-size:14.0px;font-style:normal;text-anchor:middle;" transform="rotate(-0.000000, 497.504000, 67.730599)" x="497.504" y="67.7305990115">$E_{C}$</text>
   </g>
   <g id="text_5">
    <text style="font-family:Bitstream Vera Sans;font-size:14.0px;font-style:normal;text-anchor:middle;" transform="rotate(-0.000000, 497.504000, 85.478437)" x="497.504" y="85.4784375">$E_{F}$</text>
   </g>
   <g id="text_6">
    <text style="font-family:Bitstream Vera Sans;font-size:14.0px;font-style:normal;text-anchor:middle;" transform="rotate(-0.000000, 497.504000, 139.580066)" x="497.504" y="139.580066374">$E_{V}$</text>
   </g>
   <g id="text_7">
    <text style="font-family:Bitstream Vera Sans;font-size:14.0px;font-style:normal;text-anchor:end;" transform="rotate(-0.000000, 35.504000, 72.140437)" x="35.504" y="72.1404375">$E_{redox}$</text>
   </g>
   <g id="text_8">
    <text style="font-family:Bitstream Vera Sans;font-size:14.0px;font-style:normal;text-anchor:middle;" transform="rotate(-0.000000, 104.496000, 105.167125)" x="104.496" y="105.167125">$\circled{1}$</text>
   </g>
   <g id="text_9">
    <text style="font-family:Bitstream Vera Sans;font-size:14.0px;font-style:normal;text-anchor:middle;" transform="rotate(-0.000000, 267.120000, 105.167125)" x="267.12" y="105.167125">$\circled{2}$</text>
   </g>
   <g id="text_10">
    <text style="font-family:Bitstream Vera Sans;font-size:14.0px;font-style:normal;text-anchor:middle;" transform="rotate(-0.000000, 434.672000, 105.167125)" x="434.672" y="105.167125">$\circled{3}$</text>
   </g>
   <g id="patch_3">
    <path d="
M390.32 20.2913
Q390.32 46.9281 390.32 73.5648" style="fill:none;stroke:#000000;stroke-linecap:round;"/>
    <path d="
M387.52 25.8913
L390.32 20.2913
L393.12 25.8913" style="fill:none;stroke:#000000;stroke-linecap:round;"/>
    <path d="
M393.12 67.9648
L390.32 73.5648
L387.52 67.9648" style="fill:none;stroke:#000000;stroke-linecap:round;"/>
   </g>
   <g id="text_11">
    <text style="font-family:Bitstream Vera Sans;font-size:14.0px;font-style:normal;text-anchor:start;" transform="rotate(-0.000000, 242.480000, 56.160000)" x="242.48" y="56.16">$q V_{bias}$</text>
   </g>
   <g id="text_12">
    <text style="font-family:Bitstream Vera Sans;font-size:14.0px;font-style:normal;text-anchor:start;" transform="rotate(-0.000000, 400.248000, 45.900000)" x="400.248" y="45.9">$q V_{bias}$</text>
   </g>
   <g id="text_13">
    <text style="font-family:Bitstream Vera Sans;font-size:14.0px;font-style:normal;text-anchor:end;" transform="rotate(-0.000000, 33.040000, 29.243125)" x="33.04" y="29.243125">Electr.</text>
   </g>
   <g id="text_14">
    <text style="font-family:Bitstream Vera Sans;font-size:14.0px;font-style:normal;text-anchor:start;" transform="rotate(-0.000000, 45.360000, 29.243125)" x="45.36" y="29.243125">Semiconductor</text>
   </g>
  </g>
 </g>
 <defs>
  <clipPath id="pcd8690931f">
   <rect height="164.16" width="147.84" x="341.04" y="15.12"/>
  </clipPath>
  <clipPath id="p4d5d90fd3d">
   <rect height="164.16" width="147.84" x="15.12" y="15.12"/>
  </clipPath>
  <clipPath id="pef07d6a978">
   <rect height="164.16" width="147.84" x="178.08" y="15.12"/>
  </clipPath>
 </defs>
</svg>
